<svg width="244" height="32" viewBox="0 0 244 32" fill="none" xmlns="http://www.w3.org/2000/svg">
<g clip-path="url(#clip0_26_1087)">
<path d="M28.4505 26.1196C30.7904 23.2528 32.118 19.4944 32.0655 15.792C32.0655 15.5683 32.055 15.3445 32.0409 15.1243C32.0269 14.8656 32.0024 14.6068 31.9779 14.3481C31.9779 14.3272 31.9744 14.3097 31.9709 14.2887C31.9639 14.2258 31.9569 14.1628 31.9499 14.0999C31.9359 13.9706 31.9183 13.8412 31.9008 13.7118C31.8903 13.6524 31.8833 13.593 31.8728 13.537C31.8623 13.4566 31.8483 13.3762 31.8343 13.2923C31.7117 12.5791 31.5435 11.8834 31.3299 11.2051C31.2773 11.0338 31.2178 10.8625 31.1617 10.6947C31.1617 10.6947 31.1617 10.6877 31.1582 10.6842C31.1337 10.6213 31.1127 10.5583 31.0917 10.4919C31.0216 10.3031 30.948 10.1178 30.871 9.93253C30.4927 9.01305 30.0303 8.13553 29.4944 7.31044C29.3507 7.09019 29.2001 6.87343 29.046 6.66016C28.9584 6.5378 28.8673 6.41543 28.7763 6.29307C28.7552 6.2686 28.7377 6.24063 28.7167 6.21616C28.468 5.89451 28.2053 5.57986 27.9321 5.2757C27.5187 4.81771 27.0774 4.38419 26.615 3.97864L24.0929 7.19857C24.1314 7.23353 24.1735 7.26849 24.212 7.30695C24.212 7.30695 24.2155 7.30695 24.219 7.31394C24.6289 7.69851 25.0142 8.11455 25.3645 8.55506C25.7147 8.98858 26.0335 9.45007 26.3172 9.93253C26.3838 10.0444 26.4468 10.1598 26.5134 10.2752C26.5204 10.2891 26.5309 10.3066 26.5379 10.3206C26.5624 10.3626 26.5835 10.4045 26.6045 10.4465C26.6115 10.4639 26.622 10.4779 26.629 10.4954C26.643 10.5234 26.657 10.5478 26.671 10.5758C26.6745 10.5863 26.6815 10.5968 26.685 10.6038C26.7096 10.6527 26.7341 10.7017 26.7586 10.7506C26.7586 10.7576 26.7656 10.7611 26.7656 10.7681C26.7971 10.831 26.8252 10.894 26.8567 10.9534C26.8637 10.9674 26.8672 10.9814 26.8742 10.9919C26.9022 11.0513 26.9267 11.1072 26.9513 11.1667C26.9653 11.1946 26.9758 11.2226 26.9863 11.2506C26.9933 11.2611 26.9968 11.2715 27.0003 11.2785C27.0073 11.289 27.0108 11.296 27.0108 11.3065V11.3135C27.0248 11.345 27.0388 11.3764 27.0528 11.4079C27.0599 11.4184 27.0634 11.4324 27.0669 11.4429C27.0914 11.4988 27.1124 11.5547 27.1369 11.6107C27.1474 11.6351 27.1544 11.6596 27.1649 11.6806C27.186 11.733 27.2035 11.782 27.2245 11.8344C27.242 11.8799 27.256 11.9218 27.2735 11.9673C27.2735 11.9743 27.2805 11.9813 27.2805 11.9883C27.2945 12.0232 27.3051 12.0547 27.3156 12.0896C27.3261 12.1176 27.3366 12.1456 27.3436 12.1735C27.3541 12.2015 27.3611 12.2295 27.3716 12.2575C27.4206 12.3973 27.4627 12.5371 27.5012 12.677C27.5082 12.6945 27.5117 12.7154 27.5187 12.7329C27.5117 12.7119 27.5082 12.691 27.5012 12.67C27.5082 12.698 27.5187 12.7294 27.5257 12.7574C27.5257 12.7574 27.5257 12.7609 27.5257 12.7644C27.5257 12.7539 27.5187 12.7434 27.5152 12.7329C27.5292 12.7854 27.5432 12.8378 27.5573 12.8868C27.5748 12.9567 27.5958 13.0266 27.6133 13.1C27.6413 13.2119 27.6694 13.3273 27.6939 13.4426C27.6939 13.4496 27.6939 13.4531 27.6974 13.4566C27.7044 13.4846 27.7114 13.5161 27.7149 13.544C27.7149 13.5475 27.7149 13.551 27.7149 13.5545C27.7219 13.593 27.7289 13.6314 27.7394 13.6699C27.7394 13.6699 27.7394 13.6769 27.7394 13.6804C27.7604 13.7888 27.7814 13.8971 27.799 14.0055C27.8165 14.1139 27.834 14.2223 27.848 14.3341C27.855 14.3796 27.8585 14.425 27.8655 14.4705C27.883 14.6103 27.897 14.7537 27.9111 14.897C27.9111 14.911 27.9111 14.9285 27.9146 14.9425C27.9216 15.0089 27.9251 15.0788 27.9286 15.1452C27.9286 15.1452 27.9286 15.1522 27.9286 15.1557C27.9286 15.1802 27.9286 15.2012 27.9321 15.2257C27.9321 15.2746 27.9391 15.3236 27.9426 15.3725C27.9531 15.5753 27.9566 15.778 27.9566 15.9843C27.9566 16.1906 27.9496 16.3934 27.9426 16.5961C27.9356 16.6975 27.9321 16.7989 27.9216 16.9003C27.9216 16.9423 27.9146 16.9807 27.9111 17.0227C27.9111 17.0471 27.9076 17.0716 27.904 17.0961C27.8935 17.2045 27.876 17.3793 27.862 17.4877C27.855 17.5331 27.8515 17.5751 27.8445 17.617C27.8445 17.624 27.8445 17.631 27.8445 17.638C27.8445 17.659 27.8375 17.6799 27.834 17.7009C27.827 17.7464 27.82 17.7953 27.813 17.8408C27.813 17.8443 27.813 17.8478 27.813 17.8512C27.8025 17.9317 27.7849 18.0121 27.7709 18.0925C27.7534 18.1904 27.7359 18.2848 27.7149 18.3792C27.6974 18.4631 27.6799 18.547 27.6588 18.6344C27.6518 18.6623 27.6448 18.6868 27.6413 18.7148C27.6308 18.7707 27.6168 18.8232 27.6028 18.8756C27.5853 18.942 27.5678 19.0085 27.5503 19.0749C27.5327 19.1413 27.5152 19.2077 27.4942 19.2742C27.4767 19.3406 27.4557 19.407 27.4347 19.4734C27.3926 19.6028 27.3506 19.7357 27.3086 19.865C27.3086 19.865 27.3086 19.872 27.3086 19.8755C27.2945 19.921 27.277 19.9664 27.263 20.0119C27.2315 20.1062 27.1965 20.2006 27.1579 20.2915C27.1474 20.323 27.1334 20.358 27.1194 20.3894C27.1194 20.3999 27.1124 20.4069 27.1089 20.4174C27.0809 20.4873 27.0528 20.5572 27.0248 20.6272C27.0248 20.6272 27.0248 20.6272 27.0248 20.6342C26.9863 20.7216 26.9513 20.809 26.9092 20.8929C26.8707 20.9803 26.8287 21.0677 26.7866 21.1551C26.7446 21.2425 26.7026 21.3299 26.657 21.4138C26.5449 21.6306 26.4258 21.8438 26.3032 22.0536C26.0195 22.5361 25.7007 22.994 25.3504 23.4276C24.9967 23.8681 24.6148 24.2841 24.205 24.6687C24.205 24.6687 24.2015 24.6757 24.198 24.6757C24.1595 24.7141 24.1174 24.7491 24.0789 24.7841L19.8684 19.407C17.9138 16.9108 14.1272 16.9108 12.1726 19.407L7.96216 24.7876H12.6315L14.5301 22.3647C14.6842 22.169 14.9154 22.0571 15.1641 22.0571H16.877C17.1257 22.0571 17.3604 22.1725 17.511 22.3647L25.0457 31.9861H29.715L28.3489 30.2415C27.3926 29.0214 27.4312 27.2978 28.4295 26.1126C28.4295 26.1126 28.4295 26.1091 28.433 26.1056L28.4505 26.1196Z" fill="#222326"/>
<path d="M2.33646 0L3.75512 1.81099C4.6974 3.01366 4.63435 4.70928 3.63252 5.863C3.62552 5.86999 3.62201 5.87348 3.61851 5.88048C1.27509 8.7438 -0.0525052 12.5056 3.79597e-05 16.208C3.79597e-05 16.4318 0.0105466 16.6555 0.0245581 16.8758C0.0385696 17.1345 0.0630898 17.3932 0.0876099 17.6519C0.0876099 17.6729 0.0911128 17.6904 0.0946157 17.7114C0.101621 17.7743 0.108627 17.8372 0.115633 17.9001C0.129644 18.0295 0.147159 18.1589 0.164673 18.2882C0.175182 18.3476 0.182188 18.4071 0.192696 18.463C0.203205 18.5434 0.217216 18.6238 0.231228 18.7077C0.353829 19.421 0.521967 20.1167 0.735642 20.7949C0.788185 20.9662 0.847734 21.1376 0.90378 21.3054C0.90378 21.3054 0.90378 21.3124 0.907283 21.3159C0.931804 21.3788 0.952821 21.4417 0.973838 21.5081C1.0439 21.6969 1.11746 21.8822 1.19452 22.0675C1.57283 22.987 2.03521 23.8645 2.57115 24.6896C2.71477 24.9099 2.86539 25.1266 3.01952 25.3399C3.10709 25.4623 3.19817 25.5846 3.28924 25.707C3.31026 25.7315 3.32777 25.7594 3.34879 25.7839C3.59749 26.1055 3.86021 26.4202 4.13343 26.7244C4.54677 27.1823 4.98814 27.6159 5.45052 28.0214L7.97259 24.8015C7.93406 24.7665 7.89202 24.7316 7.85349 24.6931C7.85349 24.6931 7.84999 24.6931 7.84649 24.6861C7.43665 24.3015 7.05133 23.8855 6.70104 23.445C6.35076 23.0115 6.03199 22.55 5.74826 22.0675C5.68171 21.9556 5.61865 21.8403 5.5521 21.7249C5.54509 21.7109 5.53459 21.6934 5.52758 21.6794C5.50306 21.6375 5.48204 21.5955 5.46103 21.5536C5.45402 21.5361 5.44351 21.5221 5.43651 21.5046C5.42249 21.4767 5.40848 21.4522 5.39447 21.4242C5.39097 21.4137 5.38396 21.4033 5.38046 21.3963C5.35594 21.3473 5.33142 21.2984 5.3069 21.2494C5.3069 21.2424 5.29989 21.2389 5.29989 21.2319C5.26837 21.169 5.24034 21.1061 5.20882 21.0432C5.20181 21.0292 5.19831 21.0152 5.1913 21.0047C5.16328 20.9453 5.13876 20.8893 5.11424 20.8299C5.10023 20.8019 5.08972 20.774 5.07921 20.746C5.07221 20.7355 5.0687 20.725 5.0652 20.718C5.05819 20.7075 5.05469 20.7005 5.05469 20.69V20.6831C5.04068 20.6516 5.02667 20.6201 5.01266 20.5887C5.00565 20.5782 5.00215 20.5642 4.99865 20.5537C4.97413 20.4978 4.95311 20.4418 4.92859 20.3859C4.91808 20.3614 4.91107 20.3369 4.90056 20.316C4.87955 20.2635 4.86203 20.2146 4.84102 20.1621C4.8235 20.1167 4.80949 20.0747 4.79198 20.0293C4.79198 20.0223 4.78497 20.0153 4.78497 20.0083C4.77096 19.9733 4.76045 19.9419 4.74994 19.9069C4.73943 19.8789 4.72892 19.851 4.72192 19.823C4.71141 19.795 4.7044 19.7671 4.69389 19.7391C4.64485 19.5993 4.60282 19.4594 4.56429 19.3196C4.55728 19.3021 4.55378 19.2811 4.54677 19.2636C4.55378 19.2846 4.55728 19.3056 4.56429 19.3266C4.55728 19.2986 4.54677 19.2671 4.53977 19.2392C4.53977 19.2392 4.53977 19.2357 4.53977 19.2322C4.53977 19.2427 4.54677 19.2531 4.55028 19.2636C4.53627 19.2112 4.52225 19.1587 4.50824 19.1098C4.49073 19.0399 4.46971 18.97 4.4522 18.8965C4.42417 18.7847 4.39615 18.6693 4.37163 18.5539C4.37163 18.5469 4.37163 18.5434 4.36813 18.5399C4.36112 18.512 4.35412 18.4805 4.35061 18.4525C4.35061 18.449 4.35061 18.4455 4.35061 18.442C4.34361 18.4036 4.3366 18.3651 4.32609 18.3267C4.32609 18.3267 4.32609 18.3197 4.32609 18.3162C4.30508 18.2078 4.28406 18.0994 4.26654 17.991C4.24903 17.8827 4.23151 17.7743 4.2175 17.6624C4.2105 17.617 4.207 17.5715 4.19999 17.5261C4.18247 17.3862 4.16846 17.2429 4.15445 17.0995C4.15445 17.0855 4.15445 17.0681 4.15095 17.0541C4.14394 16.9877 4.14044 16.9177 4.13694 16.8513C4.13694 16.8513 4.13694 16.8443 4.13694 16.8408C4.13694 16.8163 4.13694 16.7954 4.13343 16.7709C4.13343 16.7219 4.12643 16.673 4.12293 16.6241C4.11242 16.4213 4.10891 16.2185 4.10891 16.0122C4.10891 15.806 4.11592 15.6032 4.12293 15.4004C4.12993 15.299 4.13343 15.1976 4.14394 15.0963C4.14394 15.0543 4.15095 15.0158 4.15445 14.9739C4.15445 14.9494 4.15795 14.9214 4.16146 14.897C4.17197 14.7851 4.18247 14.6732 4.19649 14.5613C4.20349 14.4984 4.2105 14.439 4.22101 14.3761C4.22101 14.3691 4.22101 14.3621 4.22101 14.3551C4.22101 14.3341 4.22801 14.3131 4.23151 14.2921C4.23852 14.2467 4.24553 14.1977 4.25253 14.1523C4.25253 14.1488 4.25253 14.1453 4.25253 14.1418C4.26304 14.0614 4.28056 13.981 4.29457 13.9006C4.31208 13.8027 4.3296 13.7083 4.35061 13.6139C4.36813 13.53 4.38564 13.4461 4.40666 13.3587C4.41366 13.3307 4.42067 13.3062 4.42417 13.2783C4.43468 13.2223 4.44869 13.1699 4.46271 13.1174C4.48022 13.051 4.49773 12.9846 4.51525 12.9182C4.53276 12.8517 4.55028 12.7853 4.57129 12.7189C4.58881 12.6525 4.60983 12.586 4.63084 12.5196C4.67288 12.3903 4.71491 12.2574 4.75695 12.128C4.75695 12.128 4.75695 12.1211 4.75695 12.1176C4.77096 12.0721 4.78847 12.0267 4.80248 11.9812C4.83401 11.8868 4.86904 11.7924 4.90757 11.7015C4.91808 11.6701 4.93209 11.6351 4.9461 11.6036C4.9461 11.5931 4.95311 11.5861 4.95661 11.5757C4.98463 11.5057 5.01266 11.4358 5.04068 11.3659C5.04068 11.3659 5.04068 11.3659 5.04068 11.3589C5.07921 11.2715 5.11424 11.1841 5.15627 11.1002C5.19481 11.0128 5.23684 10.9254 5.27888 10.838C5.32091 10.7506 5.36294 10.6632 5.40848 10.5793C5.52057 10.3625 5.63967 10.1492 5.76227 9.93947C6.04601 9.45701 6.36477 8.99902 6.71506 8.5655C7.06885 8.12499 7.45066 7.70895 7.8605 7.32437C7.8605 7.32437 7.864 7.31738 7.8675 7.31738C7.90603 7.27892 7.94807 7.24396 7.9866 7.209L12.1971 12.586C14.1517 15.0823 17.9383 15.0823 19.8929 12.586L24.1033 7.20551H19.434L17.5354 9.62832C17.3813 9.8241 17.1501 9.93598 16.9014 9.93598H15.1885C14.9398 9.93598 14.7051 9.82061 14.5545 9.62832L7.00579 0H2.33646Z" fill="#222326"/>
<path d="M238.49 9.20533C238.49 7.59362 239.709 6.39795 241.247 6.39795C242.785 6.39795 244.004 7.59362 244.004 9.20533C244.004 10.817 242.785 12.0127 241.247 12.0127C239.709 12.0127 238.49 10.8275 238.49 9.20533ZM243.559 9.20533C243.559 7.79989 242.595 6.76854 241.247 6.76854C239.898 6.76854 238.935 7.79989 238.935 9.20533C238.935 10.6108 239.898 11.6421 241.247 11.6421C242.595 11.6421 243.559 10.6213 243.559 9.20533ZM240.164 7.66355H241.537C242.094 7.66355 242.466 7.99917 242.466 8.49912C242.466 8.84873 242.291 9.11444 241.909 9.21932V9.22981C242.21 9.31022 242.35 9.49551 242.375 9.88009C242.42 10.3206 242.42 10.6003 242.501 10.6457V10.6702H242C241.919 10.6352 241.895 10.3451 241.87 9.98497C241.86 9.61438 241.674 9.4151 241.278 9.4151H240.672V10.6667H240.161V7.66005L240.164 7.66355ZM241.418 9.02004C241.779 9.02004 241.954 8.83475 241.954 8.55506C241.954 8.27537 241.793 8.07958 241.432 8.07958H240.676V9.02004H241.418Z" fill="#222326"/>
<path d="M65.3251 14.6627H51.275V6.39087H48.0874V25.5986H51.275V17.3232H65.3251V25.5986H68.5162V6.39087H65.3251V14.6627Z" fill="#222326"/>
<path d="M89.5825 6.38745H93.3341L87.6384 13.9845C87.3897 14.3167 86.9974 14.5124 86.5806 14.5124H83.519L89.5825 6.38745Z" fill="#222326"/>
<path d="M106.964 6.39087H95.4148V25.5986H98.6059V18.8231H106.967C111.857 18.8231 114.583 16.4877 114.583 12.5965C114.583 8.7053 111.857 6.39437 106.967 6.39437L106.964 6.39087ZM107.209 16.159H98.6059V9.04792H107.209C109.875 9.04792 111.388 10.3625 111.388 12.6035C111.388 14.8445 109.847 16.159 107.209 16.159Z" fill="#222326"/>
<path d="M116.989 6.39087V25.5986H134.973V22.9625V22.938H120.152V17.3232H133.922V14.6627H120.152V9.04792H134.973V9.02345V6.39087H116.989Z" fill="#222326"/>
<path d="M212.355 6.39087H209.188V25.5986H212.355V6.39087Z" fill="#222326"/>
<path d="M224.633 6.39087H215.697V25.5986H224.741C232.577 25.5986 237.579 21.8402 237.579 15.9982C237.635 10.1492 232.605 6.39087 224.629 6.39087H224.633ZM224.745 22.938H218.891V9.04792H224.636C230.987 9.04792 234.427 11.5337 234.427 16.0192C234.427 20.5047 231.018 22.9345 224.748 22.9345L224.745 22.938Z" fill="#222326"/>
<path d="M82.6785 17.5401C83.225 18.2673 83.5192 19.1518 83.5192 20.0573V25.5951H80.3281V19.4035L70.5691 6.38745H74.3207L82.682 17.5366L82.6785 17.5401Z" fill="#222326"/>
<path d="M153.875 18.8895V18.033C156.467 16.9946 157.857 14.9004 157.857 12.3203C157.857 8.69831 155.188 6.39087 150.676 6.39087H137.81V25.5986H141.026V18.9315H148.921C152.41 18.9315 153.566 20.2495 154.305 25.5986H158.046C156.933 21.3927 156.088 19.6027 153.875 18.8895ZM149.275 16.2709H141.026V9.05142H150.54C153.29 9.05142 154.691 10.31 154.691 12.4671C154.691 14.8725 152.687 16.2709 149.275 16.2709Z" fill="#222326"/>
<path d="M202.459 18.8895V18.033C205.052 16.9946 206.442 14.9004 206.442 12.3203C206.442 8.69831 203.773 6.39087 199.261 6.39087H186.395V25.5986H189.611V18.9315H197.506C200.995 18.9315 202.151 20.2495 202.89 25.5986H206.631C205.517 21.3927 204.673 19.6027 202.459 18.8895ZM197.864 16.2709H189.614V9.05142H199.128C201.878 9.05142 203.279 10.31 203.279 12.4671C203.279 14.8725 201.275 16.2709 197.864 16.2709Z" fill="#222326"/>
<path d="M171.533 16.2709V18.9314C174.839 18.9314 175.897 19.8125 175.953 21.0221C175.988 22.7282 173.774 23.4624 170.741 23.4624C166.723 23.4624 163.819 20.0817 163.819 16.1905C163.819 10.9708 167.298 8.60041 172.499 8.60041C176.149 8.60041 178.139 9.34508 179.344 11.9672H182.976C181.288 8.14591 178.594 5.7196 172.464 5.7196C165.543 5.7196 160.653 9.94292 160.653 16.1625C160.653 22.3821 164.821 26.2628 170.846 26.2628C175.116 26.2628 178.044 24.714 178.044 21.9171C178.044 20.2145 176.468 19.4524 176.247 19.4104V18.9279H180.342V25.5951H183.558V16.2674H171.536L171.533 16.2709Z" fill="#222326"/>
</g>
<defs>
<clipPath id="clip0_26_1087">
<rect width="244" height="32" fill="white"/>
</clipPath>
</defs>
</svg>
