<?xml version="1.0" encoding="UTF-8" standalone="no"?>
<svg
   width="32.067001"
   height="31.986099"
   viewBox="0 0 32.067001 31.986099"
   fill="none"
   version="1.1"
   id="svg13"
   sodipodi:docname="Logo.svg"
   inkscape:version="1.4.2 (2aeb623e1d, 2025-05-12)"
   xmlns:inkscape="http://www.inkscape.org/namespaces/inkscape"
   xmlns:sodipodi="http://sodipodi.sourceforge.net/DTD/sodipodi-0.dtd"
   xmlns="http://www.w3.org/2000/svg"
   xmlns:svg="http://www.w3.org/2000/svg">
   <style>
      .pathicus {
         fill: #222326;
      }
      @media (prefers-color-scheme: dark) {
         .pathicus {
            fill: #ffffff;
         }
      }
   </style>

  <sodipodi:namedview
     id="namedview13"
     pagecolor="#ffffff"
     bordercolor="#000000"
     borderopacity="0.25"
     inkscape:showpageshadow="2"
     inkscape:pageopacity="0.0"
     inkscape:pagecheckerboard="0"
     inkscape:deskcolor="#d1d1d1"
     inkscape:zoom="3.6065574"
     inkscape:cx="122"
     inkscape:cy="16.081818"
     inkscape:window-width="2510"
     inkscape:window-height="1371"
     inkscape:window-x="50"
     inkscape:window-y="32"
     inkscape:window-maximized="1"
     inkscape:current-layer="g13" />
  <g
     clip-path="url(#clip0_26_1087)"
     id="g13">
    <path
       d="m 28.4505,26.1196 c 2.3399,-2.8668 3.6675,-6.6252 3.615,-10.3276 0,-0.2237 -0.0105,-0.4475 -0.0246,-0.6677 -0.014,-0.2587 -0.0385,-0.5175 -0.063,-0.7762 0,-0.0209 -0.0035,-0.0384 -0.007,-0.0594 -0.007,-0.0629 -0.014,-0.1259 -0.021,-0.1888 -0.014,-0.1293 -0.0316,-0.2587 -0.0491,-0.3881 -0.0105,-0.0594 -0.0175,-0.1188 -0.028,-0.1748 -0.0105,-0.0804 -0.0245,-0.1608 -0.0385,-0.2447 -0.1226,-0.7132 -0.2908,-1.4089 -0.5044,-2.0872 -0.0526,-0.1713 -0.1121,-0.3426 -0.1682,-0.5104 0,0 0,-0.007 -0.0035,-0.0105 C 31.1337,10.6213 31.1127,10.5583 31.0917,10.4919 31.0216,10.3031 30.948,10.1178 30.871,9.93253 30.4927,9.01305 30.0303,8.13553 29.4944,7.31044 29.3507,7.09019 29.2001,6.87343 29.046,6.66016 28.9584,6.5378 28.8673,6.41543 28.7763,6.29307 28.7552,6.2686 28.7377,6.24063 28.7167,6.21616 28.468,5.89451 28.2053,5.57986 27.9321,5.2757 27.5187,4.81771 27.0774,4.38419 26.615,3.97864 l -2.5221,3.21993 c 0.0385,0.03496 0.0806,0.06992 0.1191,0.10838 0,0 0.0035,0 0.007,0.00699 0.4099,0.38457 0.7952,0.80061 1.1455,1.24112 0.3502,0.43352 0.669,0.89501 0.9527,1.37747 0.0666,0.11187 0.1296,0.22727 0.1962,0.34267 0.007,0.0139 0.0175,0.0314 0.0245,0.0454 0.0245,0.042 0.0456,0.0839 0.0666,0.1259 0.007,0.0174 0.0175,0.0314 0.0245,0.0489 0.014,0.028 0.028,0.0524 0.042,0.0804 0.0035,0.0105 0.0105,0.021 0.014,0.028 0.0246,0.0489 0.0491,0.0979 0.0736,0.1468 0,0.007 0.007,0.0105 0.007,0.0175 0.0315,0.0629 0.0596,0.1259 0.0911,0.1853 0.007,0.014 0.0105,0.028 0.0175,0.0385 0.028,0.0594 0.0525,0.1153 0.0771,0.1748 0.014,0.0279 0.0245,0.0559 0.035,0.0839 0.007,0.0105 0.0105,0.0209 0.014,0.0279 0.007,0.0105 0.0105,0.0175 0.0105,0.028 v 0.007 c 0.014,0.0315 0.028,0.0629 0.042,0.0944 0.0071,0.0105 0.0106,0.0245 0.0141,0.035 0.0245,0.0559 0.0455,0.1118 0.07,0.1678 0.0105,0.0244 0.0175,0.0489 0.028,0.0699 0.0211,0.0524 0.0386,0.1014 0.0596,0.1538 0.0175,0.0455 0.0315,0.0874 0.049,0.1329 0,0.007 0.007,0.014 0.007,0.021 0.014,0.0349 0.0246,0.0664 0.0351,0.1013 0.0105,0.028 0.021,0.056 0.028,0.0839 0.0105,0.028 0.0175,0.056 0.028,0.084 0.049,0.1398 0.0911,0.2796 0.1296,0.4195 0.007,0.0175 0.0105,0.0384 0.0175,0.0559 -0.007,-0.021 -0.0105,-0.0419 -0.0175,-0.0629 0.007,0.028 0.0175,0.0594 0.0245,0.0874 0,0 0,0.0035 0,0.007 0,-0.0105 -0.007,-0.021 -0.0105,-0.0315 0.014,0.0525 0.028,0.1049 0.0421,0.1539 0.0175,0.0699 0.0385,0.1398 0.056,0.2132 0.028,0.1119 0.0561,0.2273 0.0806,0.3426 0,0.007 0,0.0105 0.0035,0.014 0.007,0.028 0.014,0.0595 0.0175,0.0874 0,0.0035 0,0.007 0,0.0105 0.007,0.0385 0.014,0.0769 0.0245,0.1154 0,0 0,0.007 0,0.0105 0.021,0.1084 0.042,0.2167 0.0596,0.3251 0.0175,0.1084 0.035,0.2168 0.049,0.3286 0.007,0.0455 0.0105,0.0909 0.0175,0.1364 0.0175,0.1398 0.0315,0.2832 0.0456,0.4265 0,0.014 0,0.0315 0.0035,0.0455 0.007,0.0664 0.0105,0.1363 0.014,0.2027 0,0 0,0.007 0,0.0105 0,0.0245 0,0.0455 0.0035,0.07 0,0.0489 0.007,0.0979 0.0105,0.1468 0.0105,0.2028 0.014,0.4055 0.014,0.6118 0,0.2063 -0.007,0.4091 -0.014,0.6118 -0.007,0.1014 -0.0105,0.2028 -0.021,0.3042 0,0.042 -0.007,0.0804 -0.0105,0.1224 0,0.0244 -0.0035,0.0489 -0.0071,0.0734 -0.0105,0.1084 -0.028,0.2832 -0.042,0.3916 -0.007,0.0454 -0.0105,0.0874 -0.0175,0.1293 0,0.007 0,0.014 0,0.021 0,0.021 -0.007,0.0419 -0.0105,0.0629 -0.007,0.0455 -0.014,0.0944 -0.021,0.1399 0,0.0035 0,0.007 0,0.0104 -0.0105,0.0805 -0.0281,0.1609 -0.0421,0.2413 -0.0175,0.0979 -0.035,0.1923 -0.056,0.2867 -0.0175,0.0839 -0.035,0.1678 -0.0561,0.2552 -0.007,0.0279 -0.014,0.0524 -0.0175,0.0804 -0.0105,0.0559 -0.0245,0.1084 -0.0385,0.1608 -0.0175,0.0664 -0.035,0.1329 -0.0525,0.1993 -0.0176,0.0664 -0.0351,0.1328 -0.0561,0.1993 -0.0175,0.0664 -0.0385,0.1328 -0.0595,0.1992 -0.0421,0.1294 -0.0841,0.2623 -0.1261,0.3916 0,0 0,0.007 0,0.0105 -0.0141,0.0455 -0.0316,0.0909 -0.0456,0.1364 -0.0315,0.0943 -0.0665,0.1887 -0.1051,0.2796 -0.0105,0.0315 -0.0245,0.0665 -0.0385,0.0979 0,0.0105 -0.007,0.0175 -0.0105,0.028 -0.028,0.0699 -0.0561,0.1398 -0.0841,0.2098 0,0 0,0 0,0.007 -0.0385,0.0874 -0.0735,0.1748 -0.1156,0.2587 -0.0385,0.0874 -0.0805,0.1748 -0.1226,0.2622 -0.042,0.0874 -0.084,0.1748 -0.1296,0.2587 -0.1121,0.2168 -0.2312,0.43 -0.3538,0.6398 -0.2837,0.4825 -0.6025,0.9404 -0.9528,1.374 -0.3537,0.4405 -0.7356,0.8565 -1.1454,1.2411 0,0 -0.0035,0.007 -0.007,0.007 -0.0385,0.0384 -0.0806,0.0734 -0.1191,0.1084 L 19.8684,19.407 c -1.9546,-2.4962 -5.7412,-2.4962 -7.6958,0 l -4.21044,5.3806 h 4.66934 l 1.8986,-2.4229 c 0.1541,-0.1957 0.3853,-0.3076 0.634,-0.3076 h 1.7129 c 0.2487,0 0.4834,0.1154 0.634,0.3076 l 7.5347,9.6214 h 4.6693 l -1.3661,-1.7446 c -0.9563,-1.2201 -0.9177,-2.9437 0.0806,-4.1289 0,0 0,-0.0035 0.0035,-0.007 z"
       class="pathicus"
       id="path1" />
    <path
       d="M 2.33646,0 3.75512,1.81099 C 4.6974,3.01366 4.63435,4.70928 3.63252,5.863 3.62552,5.86999 3.62201,5.87348 3.61851,5.88048 1.27509,8.7438 -0.0525052,12.5056 3.79597e-5,16.208 c 0,0.2238 0.0105086403,0.4475 0.0245201403,0.6678 0.0140115,0.2587 0.0385317,0.5174 0.0630518,0.7761 0,0.021 0.0035029,0.0385 0.0070058,0.0595 0.0070053,0.0629 0.0140113,0.1258 0.0210173,0.1887 0.014011,0.1294 0.031526,0.2588 0.04904,0.3881 0.010509,0.0594 0.017515,0.1189 0.028023,0.1748 0.010509,0.0804 0.02452,0.1608 0.038532,0.2447 0.122601,0.7133 0.290739,1.409 0.504414,2.0872 0.052543,0.1713 0.112092,0.3427 0.168138,0.5105 0,0 0,0.007 0.003503,0.0105 0.024521,0.0629 0.045538,0.1258 0.066555,0.1922 0.070062,0.1888 0.143622,0.3741 0.220682,0.5594 0.37831,0.9195 0.84069,1.797 1.37663,2.6221 0.14362,0.2203 0.29424,0.437 0.44837,0.6503 0.08757,0.1224 0.17865,0.2447 0.26972,0.3671 0.02102,0.0245 0.03853,0.0524 0.05955,0.0769 0.2487,0.3216 0.51142,0.6363 0.78464,0.9405 0.41334,0.4579 0.85471,0.8915 1.31709,1.297 l 2.52207,-3.2199 c -0.03853,-0.035 -0.08057,-0.0699 -0.1191,-0.1084 0,0 -0.0035,0 -0.007,-0.007 C 7.43665,24.3015 7.05133,23.8855 6.70104,23.445 6.35076,23.0115 6.03199,22.55 5.74826,22.0675 5.68171,21.9556 5.61865,21.8403 5.5521,21.7249 5.54509,21.7109 5.53459,21.6934 5.52758,21.6794 5.50306,21.6375 5.48204,21.5955 5.46103,21.5536 5.45402,21.5361 5.44351,21.5221 5.43651,21.5046 5.42249,21.4767 5.40848,21.4522 5.39447,21.4242 5.39097,21.4137 5.38396,21.4033 5.38046,21.3963 5.35594,21.3473 5.33142,21.2984 5.3069,21.2494 5.3069,21.2424 5.29989,21.2389 5.29989,21.2319 5.26837,21.169 5.24034,21.1061 5.20882,21.0432 5.20181,21.0292 5.19831,21.0152 5.1913,21.0047 5.16328,20.9453 5.13876,20.8893 5.11424,20.8299 5.10023,20.8019 5.08972,20.774 5.07921,20.746 5.07221,20.7355 5.0687,20.725 5.0652,20.718 5.05819,20.7075 5.05469,20.7005 5.05469,20.69 V 20.6831 C 5.04068,20.6516 5.02667,20.6201 5.01266,20.5887 5.00565,20.5782 5.00215,20.5642 4.99865,20.5537 4.97413,20.4978 4.95311,20.4418 4.92859,20.3859 4.91808,20.3614 4.91107,20.3369 4.90056,20.316 4.87955,20.2635 4.86203,20.2146 4.84102,20.1621 4.8235,20.1167 4.80949,20.0747 4.79198,20.0293 c 0,-0.007 -0.00701,-0.014 -0.00701,-0.021 C 4.77096,19.9733 4.76045,19.9419 4.74994,19.9069 4.73943,19.8789 4.72892,19.851 4.72192,19.823 4.71141,19.795 4.7044,19.7671 4.69389,19.7391 4.64485,19.5993 4.60282,19.4594 4.56429,19.3196 4.55728,19.3021 4.55378,19.2811 4.54677,19.2636 c 0.00701,0.021 0.01051,0.042 0.01752,0.063 -0.00701,-0.028 -0.01752,-0.0595 -0.02452,-0.0874 0,0 0,-0.0035 0,-0.007 0,0.0105 0.007,0.0209 0.01051,0.0314 C 4.53627,19.2112 4.52225,19.1587 4.50824,19.1098 4.49073,19.0399 4.46971,18.97 4.4522,18.8965 4.42417,18.7847 4.39615,18.6693 4.37163,18.5539 c 0,-0.007 0,-0.0105 -0.0035,-0.014 -0.00701,-0.0279 -0.01401,-0.0594 -0.01752,-0.0874 0,-0.0035 0,-0.007 0,-0.0105 -0.007,-0.0384 -0.01401,-0.0769 -0.02452,-0.1153 0,0 0,-0.007 0,-0.0105 C 4.30508,18.2078 4.28406,18.0994 4.26654,17.991 4.24903,17.8827 4.23151,17.7743 4.2175,17.6624 4.2105,17.617 4.207,17.5715 4.19999,17.5261 4.18247,17.3862 4.16846,17.2429 4.15445,17.0995 c 0,-0.014 0,-0.0314 -0.0035,-0.0454 -0.00701,-0.0664 -0.01051,-0.1364 -0.01401,-0.2028 0,0 0,-0.007 0,-0.0105 0,-0.0245 0,-0.0454 -0.00351,-0.0699 0,-0.049 -0.007,-0.0979 -0.0105,-0.1468 -0.01051,-0.2028 -0.01402,-0.4056 -0.01402,-0.6119 0,-0.2062 0.00701,-0.409 0.01402,-0.6118 0.007,-0.1014 0.0105,-0.2028 0.02101,-0.3041 0,-0.042 0.00701,-0.0805 0.01051,-0.1224 0,-0.0245 0.0035,-0.0525 0.00701,-0.0769 0.01051,-0.1119 0.02101,-0.2238 0.03503,-0.3357 0.007,-0.0629 0.01401,-0.1223 0.02452,-0.1852 0,-0.007 0,-0.014 0,-0.021 0,-0.021 0.007,-0.042 0.0105,-0.063 0.00701,-0.0454 0.01402,-0.0944 0.02102,-0.1398 0,-0.0035 0,-0.007 0,-0.0105 0.01051,-0.0804 0.02803,-0.1608 0.04204,-0.2412 0.01751,-0.0979 0.03503,-0.1923 0.05604,-0.2867 0.01752,-0.0839 0.03503,-0.1678 0.05605,-0.2552 0.007,-0.028 0.01401,-0.0525 0.01751,-0.0804 0.01051,-0.056 0.02452,-0.1084 0.03854,-0.1609 0.01751,-0.0664 0.03502,-0.1328 0.05254,-0.1992 0.01751,-0.0665 0.03503,-0.1329 0.05604,-0.1993 0.01752,-0.0664 0.03854,-0.1329 0.05955,-0.1993 0.04204,-0.1293 0.08407,-0.2622 0.12611,-0.3916 0,0 0,-0.0069 0,-0.0104 0.01401,-0.0455 0.03152,-0.0909 0.04553,-0.1364 0.03153,-0.0944 0.06656,-0.1888 0.10509,-0.2797 0.01051,-0.0314 0.02452,-0.0664 0.03853,-0.0979 0,-0.0105 0.00701,-0.0175 0.01051,-0.0279 0.02802,-0.07 0.05605,-0.1399 0.08407,-0.2098 0,0 0,0 0,-0.007 C 5.07921,11.2715 5.11424,11.1841 5.15627,11.1002 5.19481,11.0128 5.23684,10.9254 5.27888,10.838 5.32091,10.7506 5.36294,10.6632 5.40848,10.5793 5.52057,10.3625 5.63967,10.1492 5.76227,9.93947 6.04601,9.45701 6.36477,8.99902 6.71506,8.5655 7.06885,8.12499 7.45066,7.70895 7.8605,7.32437 c 0,0 0.0035,-0.00699 0.007,-0.00699 C 7.90603,7.27892 7.94807,7.24396 7.9866,7.209 l 4.2105,5.377 c 1.9546,2.4963 5.7412,2.4963 7.6958,0 L 24.1033,7.20551 H 19.434 l -1.8986,2.42281 c -0.1541,0.19578 -0.3853,0.30766 -0.634,0.30766 h -1.7129 c -0.2487,0 -0.4834,-0.11537 -0.634,-0.30766 L 7.00579,0 Z"
       class="pathicus"
       id="path2" />
  </g>
  <defs
     id="defs13">
    <clipPath
       id="clip0_26_1087">
      <rect
         width="244"
         height="32"
         fill="#ffffff"
         id="rect13"
         x="0"
         y="0" />
    </clipPath>
  </defs>
</svg>
