<svg
   width="20"
   height="19.980957"
   viewBox="0 0 20 19.980957"
   fill="currentColor"
   version="1.1"
   id="svg1"
   sodipodi:docname="operator.svg"
   inkscape:version="1.4.2 (2aeb623e1d, 2025-05-12)"
   xmlns:inkscape="http://www.inkscape.org/namespaces/inkscape"
   xmlns:sodipodi="http://sodipodi.sourceforge.net/DTD/sodipodi-0.dtd"
   xmlns="http://www.w3.org/2000/svg"
   xmlns:svg="http://www.w3.org/2000/svg">
  <sodipodi:namedview
     id="namedview1"
     pagecolor="#ffffff"
     bordercolor="#000000"
     borderopacity="0.25"
     inkscape:showpageshadow="2"
     inkscape:pageopacity="0.0"
     inkscape:pagecheckerboard="0"
     inkscape:deskcolor="#d1d1d1"
     inkscape:zoom="44"
     inkscape:cx="10"
     inkscape:cy="9.9772727"
     inkscape:window-width="2510"
     inkscape:window-height="1371"
     inkscape:window-x="50"
     inkscape:window-y="32"
     inkscape:window-maximized="1"
     inkscape:current-layer="g1" />
  <g
     clip-path="url(#clip0_115_25350)"
     id="g1"
     transform="translate(0,-0.019043)">
    <path
       d="M 11.8554,8.14464 C 11.589,7.87823 11.4367,7.53569 11.4367,7.13608 V 2.85444 H 5.00474 v 2.87345 h 2.15034 c 0.39962,0 0.72312,0.13321 1.00856,0.41865 0.26641,0.26641 0.41865,0.60895 0.41865,1.00856 v 5.7089 c 0,0.3996 -0.13321,0.7231 -0.41865,1.0085 -0.26641,0.2664 -0.60894,0.4187 -1.00856,0.4187 H 4.30065 v 2.8544 H 11.4557 V 12.883 c 0,-0.3996 0.1332,-0.7231 0.4187,-1.0086 0.2664,-0.2664 0.6089,-0.4186 1.0086,-0.4377 h 5.7088 c 0.3996,0 0.7231,0.1523 1.0086,0.4377 0.2664,0.2664 0.4186,0.609 0.4376,1.0086 v 5.7088 c 0,0.3997 -0.1522,0.7232 -0.4376,1.0086 -0.2664,0.2664 -0.609,0.4186 -1.0086,0.4377 H 12.883 c -0.3997,0 -0.7232,-0.1523 -1.0086,-0.4377 C 11.608,19.334 11.4557,18.9915 11.4557,18.5918 H 4.30065 c -0.39962,0 -0.72312,-0.1332 -1.00856,-0.4186 C 3.02568,17.8877 2.87344,17.5452 2.87344,17.1646 V 14.3102 H 1.4272 C 1.02758,14.3102 0.704078,14.177 0.418635,13.8915 0.152222,13.6251 -1.34744e-5,13.2826 -0.019043,12.883 V 7.17413 c 0,-0.39962 0.152236,-0.72312 0.437678,-1.00856 C 0.685048,5.89916 1.02758,5.74692 1.4272,5.72789 H 3.57753 V 2.87347 c 0,-0.38059 0.13321,-0.70409 0.41865,-0.98954 C 4.28162,1.59849 4.60512,1.46528 5.00474,1.46528 h 6.43196 c 0,-0.39961 0.1332,-0.723116 0.4187,-1.008559 0.2664,-0.266413 0.6089,-0.4186485 1.0085,-0.437678 h 5.7089 c 0.3996,0 0.7231,0.152236 1.0085,0.437678 C 19.8478,0.723134 20,1.06567 20.019,1.46528 v 5.70885 c 0,0.39962 -0.1522,0.72312 -0.4377,1.00857 -0.2664,0.26641 -0.6089,0.41865 -1.0085,0.41865 h -5.7089 c -0.3996,0 -0.7231,-0.13321 -1.0085,-0.41865 z M 7.15508,7.1551 H 1.44623 v 1.40819 h 5.70885 z m 0,5.7089 V 10.0095 H 1.44623 V 12.864 Z M 12.8639,1.44626 v 1.40818 h 5.7089 V 1.44626 Z M 18.5728,7.1551 V 4.30068 H 12.8639 V 7.1551 Z m -5.7089,5.7089 v 1.4081 h 5.7089 V 12.864 Z m 5.7089,5.7088 v -2.8544 h -5.7089 v 2.8544 z"
       id="path1"
       fill="currentColor"
       />
  </g>
  <defs
     id="defs1">
    <clipPath
       id="clip0_115_25350">
      <rect
         width="20"
         height="20"
         id="rect1"
         x="0"
         y="0" />
    </clipPath>
  </defs>
</svg>
