<svg
   width="16.9811"
   height="20.019056"
   viewBox="0 0 16.9811 20.019056"
   version="1.1"
   id="svg1"
   sodipodi:docname="provider.svg"
   inkscape:version="1.4.2 (2aeb623e1d, 2025-05-12)"
   xmlns:inkscape="http://www.inkscape.org/namespaces/inkscape"
   xmlns:sodipodi="http://sodipodi.sourceforge.net/DTD/sodipodi-0.dtd"
   xmlns="http://www.w3.org/2000/svg"
   xmlns:svg="http://www.w3.org/2000/svg">
  <sodipodi:namedview
     id="namedview1"
     pagecolor="#ffffff"
     bordercolor="#000000"
     borderopacity="0.25"
     inkscape:showpageshadow="2"
     inkscape:pageopacity="0.0"
     inkscape:pagecheckerboard="0"
     inkscape:deskcolor="#d1d1d1"
     showgrid="false"
     inkscape:zoom="58.3"
     inkscape:cx="8.5077187"
     inkscape:cy="9.9828473"
     inkscape:window-width="2510"
     inkscape:window-height="1371"
     inkscape:window-x="50"
     inkscape:window-y="32"
     inkscape:window-maximized="1"
     inkscape:current-layer="g1" />
  <g
     clip-path="url(#clip0_115_25343)"
     id="g1"
     transform="translate(0,-0.019043)">
    <path
       d="M 7.49889,13.2762 10.03,10.7238 H 0 V 9.31428 H 10.0489 L 7.51778,6.7619 8.51889,5.73333 12.7878,10.0381 8.51889,14.3048 7.51778,13.2952 Z M 15.6022,20 H 7.10222 C 6.70556,20 6.36556,19.8667 6.10111,19.5809 5.83667,19.2952 5.68556,18.9714 5.68556,18.5714 V 16.419 h 1.43555 v 2.1524 H 15.6211 V 1.44761 H 7.10222 V 3.6 H 5.66667 V 1.44761 c 0,-0.4 0.13222,-0.742853 0.41555,-1.009519 C 6.36556,0.152376 6.70556,0.019043 7.08333,0.019043 h 8.49997 c 0.3778,0 0.6989,0.152381 0.9823,0.438095 0.2833,0.266667 0.4155,0.609522 0.4155,1.009522 V 18.6095 c 0,0.4 -0.1322,0.7238 -0.4155,1.0095 -0.2834,0.2667 -0.6234,0.4191 -1.0012,0.4191 h 0.0189 z"
       id="path1"
       fill="#27ffff"
       />
  </g>
  <defs
     id="defs1">
    <clipPath
       id="clip0_115_25343">
      <rect
         width="17"
         height="20"
         id="rect1"
         x="0"
         y="0" />
    </clipPath>
  </defs>
</svg>
